<?xml version="1.0" encoding="utf-8"?>
<!-- Generator: Adobe Illustrator 16.2.0, SVG Export Plug-In . SVG Version: 6.00 Build 0)  -->
<!DOCTYPE svg PUBLIC "-//W3C//DTD SVG 1.1//EN" "http://www.w3.org/Graphics/SVG/1.1/DTD/svg11.dtd">
<svg version="1.1" id="Layer_1" xmlns="http://www.w3.org/2000/svg" xmlns:xlink="http://www.w3.org/1999/xlink" x="0px" y="0px"
	 width="169px" height="81px" viewBox="0 0 169 81" enable-background="new 0 0 169 81" xml:space="preserve">
<path fill="#00407B" d="M59.797,29.498l7.195-1.387v27.829c0,3.047,1.166,4.867,3.496,5.453c-1.125,1.719-3.039,2.577-5.752,2.577
	c-3.293,0-4.939-1.819-4.939-5.456V29.498z"/>
<path fill="#00407B" d="M87.809,38.225c-2.643,0-4.87,0.723-6.682,2.16v-1.664H73.93v42.714h7.197V62.881
	c1.869,0.727,3.941,1.09,6.219,1.09c4.721,0,8.445-1.098,11.176-3.289c2.729-2.195,4.092-5.32,4.092-9.387
	C102.613,42.584,97.678,38.225,87.809,38.225z M92.922,57.205c-1.457,1.277-3.854,1.914-7.193,1.914
	c-1.755,0-3.29-0.426-4.603-1.277V44.787c1.352-1.082,2.893-1.625,4.633-1.625c3.337,0,5.728,0.602,7.177,1.797
	c1.446,1.199,2.172,3.266,2.172,6.207C95.107,53.916,94.379,55.932,92.922,57.205z"/>
<path fill="#00407B" d="M131.311,55.92v-5.309c0-4.811-1.102-8.074-3.305-9.801c-2.207-1.723-5.676-2.586-10.41-2.586
	c-3.438,0-6.408,0.469-8.902,1.402l1.562,4.522c1.832-0.715,4.111-1.069,6.836-1.069c4.613,0,6.92,1.453,6.92,4.358
	c-1.156-0.22-2.158-0.328-3.006-0.328c-4.955,0-8.777,0.81-11.467,2.431c-2.689,1.625-4.033,3.871-4.033,6.742
	c0,2.452,0.957,4.348,2.873,5.684c1.914,1.336,4.547,2.005,7.895,2.005c1.781,0,3.486-0.277,5.123-0.837
	c1.633-0.559,2.779-1.272,3.438-2.155c0.289,0.737,0.845,1.422,1.668,2.052c0.828,0.629,1.759,0.94,2.797,0.94
	c0.938,0,1.773-0.099,2.507-0.285c0.731-0.194,1.396-0.699,1.993-1.522C132.139,61.311,131.311,59.232,131.311,55.92z
	 M124.111,54.127c0,3.492-2.182,5.238-6.547,5.238c-3.241,0-4.86-1.109-4.86-3.328c0-2.988,2.871-4.484,8.614-4.484
	c0.621,0,1.554,0.082,2.793,0.246V54.127z"/>
<path fill="#00407B" d="M157.368,63.479l-9.076-11.215l-3.467,2.941v8.273h-7.195v-33.98l7.195-1.387v20.102l10.282-9.492h8.74
	l-10.466,9.386l12.623,15.371H157.368L157.368,63.479z"/>
<path fill="#00407B" d="M54.188,55.92v-5.309c0-4.811-1.104-8.074-3.309-9.801c-2.203-1.723-5.674-2.586-10.408-2.586
	c-3.441,0-6.41,0.469-8.904,1.402l1.564,4.522c1.834-0.715,4.111-1.069,6.834-1.069c4.613,0,6.922,1.453,6.922,4.358
	c-1.156-0.22-2.16-0.328-3.008-0.328c-4.953,0-8.775,0.81-11.465,2.431c-2.689,1.625-4.035,3.871-4.035,6.742
	c0,2.452,0.959,4.348,2.873,5.684s4.549,2.005,7.896,2.005c1.779,0,3.484-0.277,5.121-0.837c1.635-0.559,2.781-1.272,3.439-2.155
	c0.287,0.737,0.842,1.422,1.668,2.052c0.826,0.629,1.756,0.94,2.795,0.94c0.938,0,1.773-0.099,2.508-0.285
	c0.73-0.194,1.395-0.699,1.992-1.522C55.014,61.311,54.188,59.232,54.188,55.92z M46.988,54.127c0,3.492-2.184,5.238-6.551,5.238
	c-3.242,0-4.861-1.109-4.861-3.328c0-2.988,2.873-4.484,8.617-4.484c0.619,0,1.553,0.082,2.795,0.246V54.127z"/>
<path fill="#00407B" d="M34.08,9.05c0,0-22.125,50.007-23.51,51.765c-0.042,0.053-0.168,0.103-0.279,0.149
	c0.152,0.544,0.313,1.075,0.492,1.563c0.671,1.836,3.228,2.389,3.577,2.455c1.57-0.104,3.1-0.559,3.792-2.047
	C20.352,58.215,45.615,0,45.615,0L34.08,9.05z"/>
<path fill="#00407B" d="M14.36,64.982c-0.35-0.067-2.906-0.621-3.577-2.455c-0.179-0.489-0.34-1.021-0.492-1.564
	c-0.658-2.346-1.083-5.064-1.326-7.079C7.613,42.701,7.115,24.25,7.115,24.25L0,30.182c0,0,0.812,26.359,4.064,33.552
	c0.76,1.681,10.338,1.257,10.338,1.257S14.386,64.986,14.36,64.982z"/>
<path fill="#00407B" d="M166.451,34.229c-1.178,0-2.166,0.924-2.166,2.137c0,1.236,0.988,2.16,2.166,2.16
	c1.171,0,2.152-0.924,2.152-2.16C168.604,35.154,167.622,34.229,166.451,34.229z M166.451,38.211c-1.006,0-1.775-0.793-1.775-1.844
	c0-1.029,0.77-1.823,1.775-1.823c0.992,0,1.762,0.794,1.762,1.823C168.212,37.418,167.443,38.211,166.451,38.211z"/>
<path fill="#00407B" d="M166.8,36.521c0.371-0.041,0.66-0.229,0.66-0.684c0-0.482-0.28-0.719-0.879-0.719h-0.972v2.513h0.392V36.55
	h0.415l0.684,1.081h0.418L166.8,36.521z M166.409,36.234h-0.407v-0.798h0.516c0.268,0,0.553,0.051,0.553,0.383
	C167.07,36.217,166.755,36.234,166.409,36.234z"/>
</svg>
